<?xml version="1.0" encoding="UTF-8"?>
<svg id="Layer_1" data-name="Layer 1" xmlns="http://www.w3.org/2000/svg" viewBox="0 0 3636.22 1000">
  <defs>
    <style>
      .cls-1 {
        fill: #feffff;
      }
    </style>
  </defs>
  <g>
    <g>
      <path class="cls-1" d="M374.01,686h-92.51c-22.51-10.09-43.82-21.83-63.89-35.23-64.4-42.98-116.06-102.8-153.53-177.82C30.96,406.65,15.31,340.49,8.02,296.67,.09,249.07,0,217.33,0,216V0H30V216c0,1.22,.85,123.9,61.38,244.46,60,119.52,154.76,195.02,282.63,225.54Z"/>
      <path class="cls-1" d="M984.15,1000h-32.5c-4-9.29-8.33-18.63-13.02-27.96-60.66-120.56-156.81-196.24-286.78-226.04h94.56c23.27,10.26,45.28,22.29,65.97,36.06,64.41,42.9,116.06,102.61,153.53,177.48,6.79,13.55,12.84,27.1,18.24,40.46Z"/>
    </g>
    <path class="cls-1" d="M943.5,716c0,20.71-16.79,37.5-37.5,37.5-8.44,0-16.23-2.79-22.5-7.5-5.15-3.86-9.27-9.03-11.88-15h-291.62v-30h291.62c2.61-5.97,6.73-11.14,11.88-15,6.27-4.71,14.06-7.5,22.5-7.5,20.71,0,37.5,16.79,37.5,37.5Z"/>
    <path class="cls-1" d="M450,701v30H158.38c-2.61,5.97-6.73,11.14-11.88,15-6.27,4.71-14.06,7.5-22.5,7.5-20.71,0-37.5-16.79-37.5-37.5s16.79-37.5,37.5-37.5c8.44,0,16.23,2.79,22.5,7.5,5.15,3.86,9.27,9.03,11.88,15H450Z"/>
    <g>
      <rect class="cls-1" x="751.83" y="39.5" width="102.23" height="272.63" transform="translate(249.22 783.27) rotate(-60)"/>
      <path class="cls-1" d="M541.12,595.22l121.56-210.55c-5.87-10.19-6.31-23.15,0-34.07,9.41-16.3,30.25-21.88,46.55-12.47,16.3,9.41,21.88,30.25,12.47,46.55-6.31,10.92-17.74,17.02-29.51,17.03l-121.56,210.55,286.16-188.94,21.6-105.58-236.1-136.31-80.63,71.5-20.55,342.29Z"/>
    </g>
    <rect class="cls-1" x="465" y="666" width="100" height="100"/>
  </g>
  <rect class="cls-1" x="1109" width="30" height="1000"/>
  <g>
    <path class="cls-1" d="M1495.63,383.62c-7.2-8.15-16.79-14.75-28.78-19.79-12-5.04-25.67-7.55-41.01-7.55-22.55,0-38.98,4.26-49.29,12.77-10.31,8.52-15.47,20.09-15.47,34.72,0,7.68,1.38,13.97,4.14,18.89,2.75,4.92,7.02,9.17,12.77,12.77,5.76,3.6,13.13,6.72,22.13,9.35,8.99,2.64,19.61,5.28,31.84,7.91,13.67,2.88,25.96,6.12,36.88,9.71,10.91,3.6,20.2,8.09,27.88,13.49,7.67,5.4,13.55,11.93,17.63,19.61,4.08,7.68,6.12,17.27,6.12,28.78s-2.28,21.95-6.84,30.58c-4.56,8.63-10.92,15.83-19.07,21.59-8.16,5.76-17.87,10.02-29.14,12.77-11.28,2.75-23.63,4.14-37.06,4.14-39.57,0-73.75-12.35-102.53-37.06l12.59-20.51c4.55,4.8,10.01,9.35,16.37,13.67,6.35,4.32,13.43,8.09,21.23,11.33,7.79,3.24,16.13,5.76,25,7.56,8.87,1.8,18.22,2.7,28.06,2.7,20.38,0,36.27-3.65,47.67-10.97,11.39-7.31,17.09-18.4,17.09-33.28,0-7.92-1.62-14.57-4.86-19.97-3.24-5.4-8.09-10.07-14.57-14.03-6.48-3.96-14.51-7.38-24.1-10.25-9.6-2.88-20.75-5.76-33.46-8.63-13.44-3.11-25.18-6.35-35.26-9.71-10.07-3.36-18.59-7.55-25.54-12.59-6.96-5.04-12.18-11.09-15.65-18.17-3.48-7.07-5.22-15.77-5.22-26.08,0-11.75,2.21-22.24,6.66-31.48,4.44-9.23,10.73-16.91,18.89-23.02,8.15-6.12,17.75-10.79,28.78-14.03,11.03-3.24,23.26-4.86,36.7-4.86,17.03,0,32.2,2.58,45.51,7.73,13.31,5.16,25.36,12.41,36.16,21.77l-12.23,20.15Z"/>
    <path class="cls-1" d="M1563.99,648.76c1.92,.24,3.78,.42,5.58,.54,1.8,.12,3.54,.18,5.22,.18,4.32,0,7.73-.6,10.25-1.8,2.52-1.2,4.97-3.84,7.38-7.92,2.39-4.08,5.09-9.96,8.09-17.63,3-7.68,7.25-17.99,12.77-30.94l-81.67-187.44h25.18l69.43,164.77,64.4-164.77h23.38l-97.14,241.76c-2.64,6.95-7.02,13.01-13.13,18.17-6.12,5.15-14.45,7.73-25,7.73-2.4,0-4.68-.06-6.84-.18-2.16-.12-4.8-.42-7.91-.9v-21.59Z"/>
    <path class="cls-1" d="M1804.31,591.2l-76.27-187.44h25.18l64.4,164.77,64.76-164.77h23.74l-76.27,187.44h-25.54Z"/>
    <path class="cls-1" d="M2014.41,594.8c-13.67,0-26.21-2.58-37.6-7.73-11.39-5.15-21.29-12.23-29.68-21.23-8.4-8.99-14.93-19.37-19.61-31.12-4.68-11.75-7.02-24.34-7.02-37.78s2.34-25.6,7.02-37.24c4.68-11.63,11.15-21.82,19.43-30.58,8.27-8.75,18.17-15.71,29.68-20.87,11.51-5.15,23.98-7.73,37.42-7.73s26.2,2.58,37.6,7.73c11.39,5.16,21.16,12.18,29.32,21.05,8.15,8.88,14.51,19.07,19.07,30.58,4.55,11.51,6.84,23.74,6.84,36.7v5.76c0,1.92-.12,3.24-.36,3.96h-160.46c.72,10.07,3.06,19.37,7.02,27.88,3.96,8.52,9.05,15.89,15.29,22.13,6.23,6.24,13.37,11.1,21.41,14.57,8.03,3.48,16.61,5.22,25.72,5.22,5.99,0,11.99-.84,17.99-2.52,5.99-1.67,11.51-3.96,16.55-6.84,5.04-2.88,9.59-6.41,13.67-10.61,4.08-4.19,7.2-8.81,9.35-13.85l21.23,5.76c-2.88,6.96-6.96,13.26-12.23,18.89-5.28,5.64-11.39,10.56-18.35,14.75-6.96,4.2-14.63,7.44-23.02,9.71-8.4,2.28-17.15,3.42-26.26,3.42Zm69.07-107.21c-.72-10.07-3.06-19.25-7.02-27.52-3.96-8.27-8.99-15.41-15.11-21.41-6.12-5.99-13.19-10.67-21.23-14.03-8.04-3.36-16.61-5.04-25.72-5.04s-17.75,1.68-25.9,5.04c-8.16,3.36-15.29,8.04-21.41,14.03-6.12,6-11.03,13.19-14.75,21.59-3.72,8.4-5.94,17.51-6.66,27.34h137.79Z"/>
    <path class="cls-1" d="M2238.18,425.35c-16.55,.48-30.94,5.04-43.17,13.67-12.23,8.63-20.87,20.51-25.9,35.62v116.56h-24.46v-187.44h23.02v44.97c6.95-14.39,16.31-25.66,28.06-33.82,11.75-8.15,24.34-12.23,37.78-12.23,1.92,0,3.47,.12,4.68,.36v22.31Z"/>
    <path class="cls-1" d="M2543.63,553.79c-23.74,26.14-51.09,39.21-82.03,39.21-17.27,0-33.16-3.72-47.67-11.15-14.51-7.43-27.11-17.27-37.78-29.5-10.68-12.23-19.01-26.08-25-41.55-6-15.47-8.99-31.36-8.99-47.67s2.93-33.33,8.81-48.93c5.87-15.59,14.09-29.32,24.64-41.19,10.55-11.87,23.02-21.34,37.42-28.42,14.39-7.07,30.1-10.61,47.13-10.61,12.47,0,23.86,1.38,34.18,4.14,10.31,2.76,19.48,6.6,27.52,11.51,8.03,4.92,14.99,10.79,20.87,17.63,5.87,6.84,10.85,14.33,14.93,22.49l-19.43,12.95c-8.4-15.83-19.31-27.46-32.74-34.9-13.43-7.43-28.66-11.15-45.69-11.15-14.15,0-26.93,3-38.32,8.99-11.39,6-21.11,13.97-29.14,23.92-8.04,9.96-14.21,21.35-18.53,34.18-4.32,12.83-6.48,26.08-6.48,39.75,0,14.39,2.46,28.06,7.38,41.01,4.91,12.95,11.69,24.28,20.33,34,8.63,9.71,18.76,17.45,30.4,23.2,11.63,5.76,24.28,8.63,37.96,8.63,14.63,0,28.6-3.42,41.91-10.25,13.31-6.84,26.08-17.68,38.32-32.56v-42.45h-56.84v-19.43h78.07v125.56h-21.23v-37.42Z"/>
    <path class="cls-1" d="M2611.62,364.55v-35.98h24.46v35.98h-24.46Zm0,226.65v-187.44h24.46v187.44h-24.46Z"/>
    <path class="cls-1" d="M2752.28,594.8c-14.63,0-28.9-2.4-42.81-7.19-13.91-4.79-25.9-11.75-35.98-20.87l11.15-16.55c10.55,8.63,21.28,15.11,32.2,19.43,10.91,4.32,22.6,6.48,35.08,6.48,15.11,0,27.16-3.06,36.16-9.17,8.99-6.12,13.49-14.81,13.49-26.08,0-5.27-1.2-9.65-3.6-13.13-2.4-3.47-5.94-6.53-10.61-9.17-4.68-2.64-10.56-4.97-17.63-7.01-7.08-2.04-15.29-4.14-24.64-6.3-10.79-2.64-20.15-5.27-28.06-7.92-7.92-2.64-14.45-5.63-19.61-8.99-5.16-3.36-8.99-7.49-11.51-12.41-2.52-4.91-3.78-11.09-3.78-18.53,0-9.35,1.86-17.63,5.58-24.82,3.72-7.2,8.75-13.13,15.11-17.81,6.35-4.68,13.79-8.21,22.31-10.61,8.51-2.39,17.57-3.6,27.16-3.6,14.39,0,27.46,2.34,39.21,7.01,11.75,4.68,21.23,10.86,28.42,18.53l-11.87,14.39c-6.96-7.19-15.41-12.59-25.36-16.19-9.96-3.6-20.33-5.4-31.12-5.4-6.48,0-12.47,.66-17.99,1.98-5.52,1.32-10.38,3.42-14.57,6.3-4.2,2.88-7.5,6.54-9.89,10.97-2.4,4.44-3.6,9.66-3.6,15.65,0,5.04,.84,9.12,2.52,12.23,1.68,3.12,4.44,5.82,8.27,8.09,3.83,2.28,8.69,4.32,14.57,6.12,5.87,1.8,13.01,3.66,21.41,5.58,11.99,2.88,22.54,5.76,31.66,8.63,9.11,2.88,16.73,6.24,22.85,10.07,6.12,3.84,10.73,8.52,13.85,14.03,3.11,5.52,4.68,12.23,4.68,20.15,0,17.27-6.6,30.94-19.79,41.01-13.19,10.07-30.94,15.11-53.25,15.11Z"/>
    <path class="cls-1" d="M3097.66,403.76h24.1l-80.59,187.44h-20.15l-40.29-95.7-39.93,95.7h-20.15l-80.59-187.44h23.74l68.36,162.25,35.62-85.62-32.02-76.27h20.51l24.46,61.16,24.46-61.16h20.87l-32.02,76.27,35.62,85.62,68-162.25Z"/>
    <path class="cls-1" d="M3227.17,594.8c-13.67,0-26.14-2.58-37.42-7.73-11.28-5.15-21.05-12.17-29.32-21.05-8.27-8.87-14.69-19.19-19.25-30.94-4.56-11.75-6.84-24.1-6.84-37.06s2.34-25.66,7.02-37.42c4.68-11.75,11.15-22.06,19.43-30.94,8.27-8.87,18.04-15.95,29.32-21.23,11.27-5.27,23.62-7.91,37.06-7.91s25.84,2.64,37.24,7.91c11.39,5.28,21.23,12.36,29.5,21.23,8.27,8.88,14.75,19.19,19.43,30.94,4.68,11.75,7.02,24.23,7.02,37.42s-2.28,25.31-6.84,37.06c-4.56,11.75-10.97,22.07-19.25,30.94-8.27,8.88-18.11,15.89-29.5,21.05-11.39,5.15-23.92,7.73-37.6,7.73Zm-68-96.42c0,10.56,1.8,20.33,5.4,29.32,3.6,8.99,8.45,16.91,14.57,23.74,6.12,6.84,13.31,12.18,21.59,16.01,8.27,3.84,17.09,5.76,26.44,5.76s18.17-1.98,26.44-5.94c8.27-3.96,15.53-9.35,21.77-16.19,6.23-6.84,11.15-14.81,14.75-23.92,3.6-9.11,5.4-18.94,5.4-29.5s-1.8-20.09-5.4-29.32c-3.6-9.23-8.52-17.27-14.75-24.1-6.24-6.84-13.49-12.23-21.77-16.19-8.27-3.96-17.09-5.94-26.44-5.94s-18.11,1.98-26.26,5.94c-8.16,3.96-15.35,9.42-21.59,16.37-6.24,6.96-11.15,15.05-14.75,24.28-3.6,9.24-5.4,19.13-5.4,29.68Z"/>
    <path class="cls-1" d="M3362.44,328.57h24.46v220.18c0,6.96,1.92,12.41,5.76,16.37,3.83,3.96,9.23,5.94,16.19,5.94,2.64,0,5.76-.36,9.35-1.08,3.6-.72,6.95-1.67,10.07-2.88l4.32,19.79c-4.56,1.92-10.14,3.48-16.73,4.68-6.6,1.2-12.29,1.8-17.09,1.8-11.28,0-20.15-3.18-26.62-9.53-6.48-6.35-9.71-15.29-9.71-26.8v-228.45Z"/>
    <path class="cls-1" d="M3536.2,594.8c-12.95,0-24.95-2.7-35.98-8.09-11.03-5.4-20.51-12.53-28.42-21.41-7.92-8.87-14.09-19.12-18.53-30.76-4.44-11.63-6.66-23.8-6.66-36.52s2.16-25.72,6.48-37.6c4.32-11.87,10.25-22.24,17.81-31.12,7.55-8.87,16.55-15.89,26.98-21.05,10.43-5.15,21.88-7.73,34.36-7.73,15.83,0,29.86,4.14,42.09,12.41,12.23,8.27,21.82,18.29,28.78,30.04v-114.41h24.46v230.97c0,6.72,2.88,10.07,8.63,10.07v21.59c-3.6,.72-6.48,1.08-8.63,1.08-5.76,0-10.79-1.85-15.11-5.58-4.32-3.72-6.48-8.21-6.48-13.49v-18.35c-7.44,12.23-17.51,21.95-30.22,29.14-12.72,7.2-25.9,10.79-39.57,10.79Zm5.4-21.59c5.99,0,12.41-1.2,19.25-3.6,6.84-2.39,13.25-5.69,19.25-9.89,5.99-4.19,11.09-9.11,15.29-14.75,4.19-5.63,6.77-11.69,7.74-18.17v-57.92c-2.4-6.48-5.88-12.53-10.43-18.17-4.56-5.63-9.78-10.61-15.65-14.93-5.88-4.32-12.18-7.67-18.89-10.07-6.72-2.4-13.31-3.6-19.79-3.6-10.07,0-19.19,2.16-27.34,6.48-8.16,4.32-15.17,10.02-21.05,17.09-5.88,7.08-10.38,15.17-13.49,24.28-3.12,9.12-4.68,18.47-4.68,28.06,0,10.07,1.8,19.67,5.4,28.78,3.6,9.12,8.51,17.09,14.75,23.92,6.23,6.84,13.61,12.29,22.13,16.37,8.51,4.08,17.68,6.12,27.52,6.12Z"/>
  </g>
</svg>