<?xml version="1.0" encoding="UTF-8"?>
<svg id="Layer_1" data-name="Layer 1" xmlns="http://www.w3.org/2000/svg" viewBox="0 0 1000 1000">
  <defs>
    <style>
      .cls-1 {
        fill: #2b7a78;
      }
    </style>
  </defs>
  <g>
    <path class="cls-1" d="M374.01,686h-92.51c-22.51-10.09-43.82-21.83-63.89-35.23-64.4-42.98-116.06-102.8-153.53-177.82C30.96,406.65,15.31,340.49,8.02,296.67,.09,249.07,0,217.33,0,216V0H30V216c0,1.22,.85,123.9,61.38,244.46,60,119.52,154.76,195.02,282.63,225.54Z"/>
    <path class="cls-1" d="M984.15,1000h-32.5c-4-9.29-8.33-18.63-13.02-27.96-60.66-120.56-156.81-196.24-286.78-226.04h94.56c23.27,10.26,45.28,22.29,65.97,36.06,64.41,42.9,116.06,102.61,153.53,177.48,6.79,13.55,12.84,27.1,18.24,40.46Z"/>
  </g>
  <path class="cls-1" d="M943.5,716c0,20.71-16.79,37.5-37.5,37.5-8.44,0-16.23-2.79-22.5-7.5-5.15-3.86-9.27-9.03-11.88-15h-291.62v-30h291.62c2.61-5.97,6.73-11.14,11.88-15,6.27-4.71,14.06-7.5,22.5-7.5,20.71,0,37.5,16.79,37.5,37.5Z"/>
  <path class="cls-1" d="M450,701v30H158.38c-2.61,5.97-6.73,11.14-11.88,15-6.27,4.71-14.06,7.5-22.5,7.5-20.71,0-37.5-16.79-37.5-37.5s16.79-37.5,37.5-37.5c8.44,0,16.23,2.79,22.5,7.5,5.15,3.86,9.27,9.03,11.88,15H450Z"/>
  <g>
    <rect class="cls-1" x="751.83" y="39.5" width="102.23" height="272.63" transform="translate(249.22 783.27) rotate(-60)"/>
    <path class="cls-1" d="M541.12,595.22l121.56-210.55c-5.87-10.19-6.31-23.15,0-34.07,9.41-16.3,30.25-21.88,46.55-12.47,16.3,9.41,21.88,30.25,12.47,46.55-6.31,10.92-17.74,17.02-29.51,17.03l-121.56,210.55,286.16-188.94,21.6-105.58-236.1-136.31-80.63,71.5-20.55,342.29Z"/>
  </g>
  <rect class="cls-1" x="465" y="666" width="100" height="100"/>
</svg>